<svg id="Layer_1" data-name="Layer 1" xmlns="http://www.w3.org/2000/svg" viewBox="0 0 1000 1000"><defs><style>.cls-1{fill:#ffb8c1;}.cls-2{fill:#fff;}</style></defs><path class="cls-1" d="M500,153C464.56,186.1,367.32,293.87,367.32,375S426.72,522,500,522s132.68-65.8,132.68-147S535.44,186.1,500,153Z"/><path class="cls-2" d="M600.05,362.05a120.88,120.88,0,0,1-153.43,114,103.33,103.33,0,0,0,153.43-114Z"/><rect class="cls-1" x="101.97" y="733.28" width="796.07" height="36.54"/><rect class="cls-1" x="133.45" y="804.43" width="733.1" height="36.54"/><polygon class="cls-1" points="500 715.99 209.33 425.32 226.92 407.73 500 680.81 773.08 407.73 790.67 425.32 500 715.99"/><polygon class="cls-1" points="793.13 470.92 829.93 367.44 726.45 404.24 793.13 470.92"/></svg>
